{
  "accessors": [
    {
      "bufferView": 2,
      "componentType": 5126,
      "count": 65532,
      "max": [
        0.33535701036453247,
        1.0372270345687866,
        1.2637439966201782
      ],
      "min": [
        -0.32736098766326904,
        -1.1333229541778564,
        0.0010079999919980764
      ],
      "type": "VEC3"
    },
    {
      "bufferView": 2,
      "byteOffset": 786384,
      "componentType": 5126,
      "count": 65532,
      "max": [
        0.99999642372131348,
        0.99998724460601807,
        0.99999165534973145
      ],
      "min": [
        -0.99998927116394043,
        -0.99986052513122559,
        -0.99999833106994629
      ],
      "type": "VEC3"
    },
    {
      "bufferView": 3,
      "componentType": 5126,
      "count": 65532,
      "max": [
        0.99976658821105957,
        0.99999451637268066,
        0.99982368946075439,
        1
      ],
      "min": [
        -0.99997818470001221,
        -0.99989587068557739,
        -0.99999850988388062,
        1
      ],
      "type": "VEC4"
    },
    {
      "bufferView": 1,
      "componentType": 5126,
      "count": 65532,
      "max": [
        0.99326097965240479,
        0.99998098611831665
      ],
      "min": [
        2.0999999833293259e-05,
        2.9000000722589903e-05
      ],
      "type": "VEC2"
    },
    {
      "bufferView": 0,
      "componentType": 5125,
      "count": 372822,
      "max": [
        65531
      ],
      "min": [
        0
      ],
      "type": "SCALAR"
    },
    {
      "bufferView": 2,
      "byteOffset": 1572768,
      "componentType": 5126,
      "count": 2832,
      "max": [
        0.33894500136375427,
        1.1619869470596313,
        0.93366998434066772
      ],
      "min": [
        -0.2403080016374588,
        -0.78886401653289795,
        0.017457000911235809
      ],
      "type": "VEC3"
    },
    {
      "bufferView": 2,
      "byteOffset": 1606752,
      "componentType": 5126,
      "count": 2832,
      "max": [
        0.9984247088432312,
        0.99861383438110352,
        0.99934196472167969
      ],
      "min": [
        -0.99979883432388306,
        -0.98578488826751709,
        -0.99997162818908691
      ],
      "type": "VEC3"
    },
    {
      "bufferView": 3,
      "byteOffset": 1048512,
      "componentType": 5126,
      "count": 2832,
      "max": [
        0.99732166528701782,
        0.99990743398666382,
        0.88721877336502075,
        1
      ],
      "min": [
        -0.97408550977706909,
        -0.98506873846054077,
        -0.99995285272598267,
        -1
      ],
      "type": "VEC4"
    },
    {
      "bufferView": 1,
      "byteOffset": 524256,
      "componentType": 5126,
      "count": 2832,
      "max": [
        0.8566250205039978,
        0.99070698022842407
      ],
      "min": [
        0.20581899583339691,
        0.01078800018876791
      ],
      "type": "VEC2"
    },
    {
      "bufferView": 0,
      "byteOffset": 1491288,
      "componentType": 5125,
      "count": 11397,
      "max": [
        2831
      ],
      "min": [
        0
      ],
      "type": "SCALAR"
    }
  ],
  "asset": {
    "extras": {
      "author": "thesidekick (https://sketchfab.com/thesidekick)",
      "license": "CC-BY-4.0 (http://creativecommons.org/licenses/by/4.0/)",
      "source": "https://sketchfab.com/3d-models/miniature-tiger-cub-7d8266ae0e764478a03c2477dde6629f",
      "title": "Miniature tiger cub"
    },
    "generator": "Sketchfab-9.25.1",
    "version": "2.0"
  },
  "bufferViews": [
    {
      "buffer": 0,
      "byteLength": 1536876,
      "byteOffset": 0,
      "name": "floatBufferViews",
      "target": 34963
    },
    {
      "buffer": 0,
      "byteLength": 546912,
      "byteOffset": 1536876,
      "byteStride": 8,
      "name": "floatBufferViews",
      "target": 34962
    },
    {
      "buffer": 0,
      "byteLength": 1640736,
      "byteOffset": 2083788,
      "byteStride": 12,
      "name": "floatBufferViews",
      "target": 34962
    },
    {
      "buffer": 0,
      "byteLength": 1093824,
      "byteOffset": 3724524,
      "byteStride": 16,
      "name": "floatBufferViews",
      "target": 34962
    }
  ],
  "buffers": [
    {
      "byteLength": 4818348,
      "uri": "scene.bin"
    }
  ],
  "images": [
    {
      "uri": "textures/Tiger_cub_baseColor.jpeg"
    },
    {
      "uri": "textures/Tiger_cub_metallicRoughness.png"
    },
    {
      "uri": "textures/Tiger_cub_normal.png"
    }
  ],
  "materials": [
    {
      "doubleSided": true,
      "emissiveFactor": [
        0,
        0,
        0
      ],
      "name": "Tiger_cub",
      "normalTexture": {
        "index": 2,
        "scale": 1,
        "texCoord": 0
      },
      "occlusionTexture": {
        "index": 1,
        "strength": 1,
        "texCoord": 0
      },
      "pbrMetallicRoughness": {
        "baseColorFactor": [
          1,
          1,
          1,
          1
        ],
        "baseColorTexture": {
          "index": 0,
          "texCoord": 0
        },
        "metallicFactor": 0,
        "metallicRoughnessTexture": {
          "index": 1,
          "texCoord": 0
        },
        "roughnessFactor": 1
      }
    }
  ],
  "meshes": [
    {
      "primitives": [
        {
          "attributes": {
            "NORMAL": 1,
            "POSITION": 0,
            "TANGENT": 2,
            "TEXCOORD_0": 3
          },
          "indices": 4,
          "material": 0,
          "mode": 4
        }
      ]
    },
    {
      "primitives": [
        {
          "attributes": {
            "NORMAL": 6,
            "POSITION": 5,
            "TANGENT": 7,
            "TEXCOORD_0": 8
          },
          "indices": 9,
          "material": 0,
          "mode": 4
        }
      ]
    }
  ],
  "nodes": [
    {
      "children": [
        1
      ],
      "name": "RootNode (gltf orientation matrix)",
      "rotation": [
        -0.70710678118654746,
        -0,
        -0,
        0.70710678118654757
      ]
    },
    {
      "children": [
        2
      ],
      "name": "RootNode (model correction matrix)"
    },
    {
      "children": [
        3,
        4
      ],
      "name": "Tiger_cub_SF.obj.cleaner.materialmerger.gles"
    },
    {
      "mesh": 0,
      "name": ""
    },
    {
      "mesh": 1,
      "name": ""
    }
  ],
  "samplers": [
    {
      "magFilter": 9729,
      "minFilter": 9987,
      "wrapS": 10497,
      "wrapT": 10497
    }
  ],
  "scene": 0,
  "scenes": [
    {
      "name": "OSG_Scene",
      "nodes": [
        0
      ]
    }
  ],
  "textures": [
    {
      "sampler": 0,
      "source": 0
    },
    {
      "sampler": 0,
      "source": 1
    },
    {
      "sampler": 0,
      "source": 2
    }
  ]
}

