{
  "accessors": [
    {
      "bufferView": 2,
      "componentType": 5126,
      "count": 10088,
      "max": [
        1.8342784643173218,
        2.7304754257202148,
        1.3186405897140503
      ],
      "min": [
        -1.4386394023895264,
        -1.1735506057739258,
        -1.2792336940765381
      ],
      "type": "VEC3"
    },
    {
      "bufferView": 2,
      "byteOffset": 121056,
      "componentType": 5126,
      "count": 10088,
      "max": [
        0.99987268447875977,
        0.99999880790710449,
        1
      ],
      "min": [
        -0.99993276596069336,
        -0.9999692440032959,
        -1
      ],
      "type": "VEC3"
    },
    {
      "bufferView": 1,
      "componentType": 5126,
      "count": 10088,
      "max": [
        0.96529722213745117,
        0.95328325033187866
      ],
      "min": [
        0.00045959593262523413,
        0.00081949139712378383
      ],
      "type": "VEC2"
    },
    {
      "bufferView": 0,
      "componentType": 5125,
      "count": 48672,
      "max": [
        10087
      ],
      "min": [
        0
      ],
      "type": "SCALAR"
    },
    {
      "bufferView": 2,
      "byteOffset": 242112,
      "componentType": 5126,
      "count": 3244,
      "max": [
        0.77070385217666626,
        1.9915982484817505,
        0.88433021306991577
      ],
      "min": [
        -1.9852937459945679,
        -1.5844371318817139,
        -0.8906627893447876
      ],
      "type": "VEC3"
    },
    {
      "bufferView": 2,
      "byteOffset": 281040,
      "componentType": 5126,
      "count": 3244,
      "max": [
        0.9981989860534668,
        0.9925883412361145,
        0.99999606609344482
      ],
      "min": [
        -0.99737638235092163,
        -1,
        -0.99999606609344482
      ],
      "type": "VEC3"
    },
    {
      "bufferView": 1,
      "byteOffset": 80704,
      "componentType": 5126,
      "count": 3244,
      "max": [
        0.94781005382537842,
        0.99966180324554443
      ],
      "min": [
        0.00033844340941868722,
        0.0048326463438570499
      ],
      "type": "VEC2"
    },
    {
      "bufferView": 0,
      "byteOffset": 194688,
      "componentType": 5125,
      "count": 13824,
      "max": [
        3243
      ],
      "min": [
        0
      ],
      "type": "SCALAR"
    }
  ],
  "asset": {
    "extras": {
      "author": "patspet (https://sketchfab.com/patspet)",
      "license": "CC-BY-4.0 (http://creativecommons.org/licenses/by/4.0/)",
      "source": "https://sketchfab.com/3d-models/baby-duck-a33f6e51b82f48c6b5e318d48ad1e2c7",
      "title": "Baby duck"
    },
    "generator": "Sketchfab-8.42.0",
    "version": "2.0"
  },
  "bufferViews": [
    {
      "buffer": 0,
      "byteLength": 249984,
      "byteOffset": 0,
      "name": "floatBufferViews",
      "target": 34963
    },
    {
      "buffer": 0,
      "byteLength": 106656,
      "byteOffset": 249984,
      "byteStride": 8,
      "name": "floatBufferViews",
      "target": 34962
    },
    {
      "buffer": 0,
      "byteLength": 319968,
      "byteOffset": 356640,
      "byteStride": 12,
      "name": "floatBufferViews",
      "target": 34962
    }
  ],
  "buffers": [
    {
      "byteLength": 676608,
      "uri": "scene.bin"
    }
  ],
  "images": [
    {
      "uri": "textures/yellow_baseColor.png"
    },
    {
      "uri": "textures/orange_baseColor.png"
    }
  ],
  "materials": [
    {
      "doubleSided": true,
      "emissiveFactor": [
        0,
        0,
        0
      ],
      "name": "yellow",
      "pbrMetallicRoughness": {
        "baseColorFactor": [
          1,
          1,
          1,
          1
        ],
        "baseColorTexture": {
          "index": 0,
          "texCoord": 0
        },
        "metallicFactor": 0,
        "roughnessFactor": 0.42124199697207376
      }
    },
    {
      "doubleSided": true,
      "emissiveFactor": [
        0,
        0,
        0
      ],
      "name": "orange",
      "pbrMetallicRoughness": {
        "baseColorFactor": [
          1,
          1,
          1,
          1
        ],
        "baseColorTexture": {
          "index": 1,
          "texCoord": 0
        },
        "metallicFactor": 0,
        "roughnessFactor": 0.84077394524196047
      }
    }
  ],
  "meshes": [
    {
      "primitives": [
        {
          "attributes": {
            "NORMAL": 1,
            "POSITION": 0,
            "TEXCOORD_0": 2
          },
          "indices": 3,
          "material": 0,
          "mode": 4
        }
      ]
    },
    {
      "primitives": [
        {
          "attributes": {
            "NORMAL": 5,
            "POSITION": 4,
            "TEXCOORD_0": 6
          },
          "indices": 7,
          "material": 1,
          "mode": 4
        }
      ]
    }
  ],
  "nodes": [
    {
      "children": [
        1
      ],
      "name": "RootNode (gltf orientation matrix)",
      "rotation": [
        -0.70710678118654746,
        -0,
        -0,
        0.70710678118654757
      ]
    },
    {
      "children": [
        2
      ],
      "matrix": [
        0.13092103600502014,
        0,
        0,
        0,
        0,
        0.13092103600502014,
        0,
        0,
        0,
        0,
        0.13092103600502014,
        0,
        0,
        0,
        0,
        1
      ],
      "name": "RootNode (model correction matrix)"
    },
    {
      "children": [
        3
      ],
      "name": "root"
    },
    {
      "children": [
        4
      ],
      "matrix": [
        1,
        0,
        0,
        0,
        0,
        2.2204460492503131e-16,
        1,
        0,
        0,
        -1,
        2.2204460492503131e-16,
        0,
        0,
        0,
        0,
        1
      ],
      "name": "GLTF_SceneRootNode"
    },
    {
      "children": [
        5,
        6
      ],
      "matrix": [
        1,
        0,
        0,
        0,
        0,
        1,
        0,
        0,
        0,
        0,
        1,
        0,
        -0.0030393600463867188,
        0,
        0,
        1
      ],
      "name": "ducky_0"
    },
    {
      "mesh": 0,
      "name": ""
    },
    {
      "mesh": 1,
      "name": ""
    }
  ],
  "samplers": [
    {
      "magFilter": 9729,
      "minFilter": 9987,
      "wrapS": 10497,
      "wrapT": 10497
    }
  ],
  "scene": 0,
  "scenes": [
    {
      "name": "OSG_Scene",
      "nodes": [
        0
      ]
    }
  ],
  "textures": [
    {
      "sampler": 0,
      "source": 0
    },
    {
      "sampler": 0,
      "source": 1
    }
  ]
}

